<?xml version="1.0" encoding="UTF-8" standalone="no"?>
<!-- Created with Inkscape (http://www.inkscape.org/) -->

<svg
xmlns:svg="http://www.w3.org/2000/svg"
xmlns="http://www.w3.org/2000/svg"
version="1.1"
viewBox="0 0 100 100"
id="svg2"
xml:space="preserve">
<defs id="defs6" />
  <g transform="matrix(1,0,0,-1,0,100.75), scale(0.868)" id="g12">
    <path
    d="m 30.13379,93.20996 c 0,0 17.16309,-34.79297 17.16309,-34.79297 0,0 0,34.02442 0,34.02442 0,0 9.99414,0 9.99414,0 0,0 0,-30.05078 0,-30.05078 0,0 5.96875,0 5.96875,0 0,0 0,39.45214 0,39.45214 21.59375,-2.8125 38.27148,-21.27832 38.27148,-43.63672 0,-10.55761 -3.71973,-20.27343 -9.91602,-27.85742 0,0 -14.36523,0 -14.36523,0 7.43164,5.27735 12.6582,13.4834 14.02539,22.91114 0,0 -18.15039,0 -18.15039,0 0,0 0,-22.91114 0,-22.91114 0,0 -9.86523,0 -9.86523,0 0,0 0,22.91114 0,22.91114 0,0 -5.96875,0 -5.96875,0 0,0 0,-36.62012 0,-36.62012 0,0 -29.08545,59.62598 -29.08545,59.62598 C 24.23633,69 23.41113,63.96875 23.41113,58.20605 c 0,-11.48632 5.67871,-21.67675 14.3833,-27.85742 0,0 -13.98486,0 -13.98486,0 -6.27783,7.6084 -10.29639,17.22266 -10.29639,27.85742 0,13.68458 5.58155,26.0254 16.62061,35.00391 0,0 0,0 0,0 z M 73.125,62.39063 c 0,0 18.25391,0 18.25391,0 -1.39844,11.42285 -8.44141,21.09863 -18.25391,26.15722 0,0 0,-26.15722 0,-26.15722 0,0 0,0 0,0 z"
    id="path18"
    style="fill:#ffffff;fill-opacity:1;fill-rule:nonzero;stroke:none" />
    <path
    d="m 3.44336,58.39941 c 0,29.86524 24.2124,54.07813 54.07812,54.07813 29.86719,0 54.07813,-24.21289 54.07813,-54.07813 0,-29.86621 -24.21094,-54.0791 -54.07813,-54.0791 -29.86572,0 -54.07812,24.21289 -54.07812,54.0791 0,0 0,0 0,0 z"
    id="path20"
    style="fill:none;stroke:#ffffff;stroke-width:7;stroke-linecap:butt;stroke-linejoin:miter;stroke-miterlimit:4;stroke-opacity:1;stroke-dasharray:none" />
  </g>
</svg>